<svg xmlns="http://www.w3.org/2000/svg" version="1.1" xmlns:xlink="http://www.w3.org/1999/xlink" width="1000" height="1000">
  <g clip-path="url(#clip_path)">
    <rect width="1000" height="1000" fill="#ffffff"></rect>
    <g transform="matrix(1.3671875,0,0,1.3671875,150,150)">
      <svg width="512" height="512" viewBox="0 0 60 60" fill="none" xmlns="http://www.w3.org/2000/svg">
        <path d="M24.0764 8.88889H9.17197V13.7037C9.17197 16.1583 7.11876 18.1481 4.58599 18.1481C2.05322 18.1481 0 16.1583 0 13.7037V4.44444C0 4.40611 0.000497289 4.36789 0.00149283 4.32979C0.064244 1.92818 2.09277 -1.05619e-07 4.58599 0H24.0764V8.88889Z" fill="#433DC2"/>
        <path d="M19.1083 18.1481C19.1083 20.6027 17.0551 22.5926 14.5223 22.5926C11.9895 22.5926 9.93631 20.6027 9.93631 18.1481C9.93631 15.6935 11.9895 13.7037 14.5223 13.7037C17.0551 13.7037 19.1083 15.6935 19.1083 18.1481Z" fill="black"/>
        <path d="M50.828 0.740741C50.828 0.331641 51.1702 0 51.5924 0H59.2357C59.6578 0 60 0.331641 60 0.740741V8.14815C60 8.55725 59.6578 8.88889 59.2357 8.88889H51.5924C51.1702 8.88889 50.828 8.55725 50.828 8.14815V0.740741Z" fill="#433DC2"/>
        <path d="M4.58599 37.037C7.11876 37.037 9.17197 39.0269 9.17197 41.4815V51.1111H35.5414V60H4.58599C2.05322 60 0 58.0102 0 55.5556V41.4815C0 39.0269 2.05322 37.037 4.58599 37.037Z" fill="#433DC2"/>
        <path d="M45.4777 18.5185C48.0105 18.5185 50.0637 20.5084 50.0637 22.963C50.0637 25.4176 48.0105 27.4074 45.4777 27.4074H33.6306V37.037H50.828V32.2222C50.828 29.7676 52.8812 27.7778 55.414 27.7778C57.9468 27.7778 60 29.7676 60 32.2222V55.5556C60 58.0102 57.9468 60 55.414 60C52.8812 60 50.828 58.0102 50.828 55.5556V45.9259H24.4586V22.963C24.4586 20.5084 26.5118 18.5185 29.0446 18.5185H45.4777Z" fill="black"/>
      </svg>
    </g>
  </g>
  <defs>
    <clipPath id="clip_path">
      <rect width="1000" height="1000" x="0" y="0" rx="150" ry="150"></rect>
    </clipPath>
  </defs>
</svg>
